<?xml version="1.0" encoding="UTF-8" standalone="no"?>
<!DOCTYPE svg PUBLIC "-//W3C//DTD SVG 1.1//EN" "http://www.w3.org/Graphics/SVG/1.1/DTD/svg11.dtd">
<svg width="100%" height="100%" viewBox="0 0 300 50" version="1.1" xmlns="http://www.w3.org/2000/svg" xmlns:xlink="http://www.w3.org/1999/xlink" xml:space="preserve" style="fill-rule:evenodd;clip-rule:evenodd;stroke-linejoin:round;stroke-miterlimit:1.41421;">
    <g transform="matrix(0.972217,0,0,0.972217,-13.611,-13.6597)">
        <g transform="matrix(1,0,0,1,0,0.334417)">
            <path d="M93.866,63.264L85.968,37.529L85.767,37.529C86.05,42.765 86.193,46.257 86.193,48.007L86.193,63.264L79.978,63.264L79.978,30.461L89.446,30.461L97.209,55.545L97.344,55.545L105.578,30.461L115.046,30.461L115.046,63.264L108.563,63.264L108.563,47.738C108.563,47.005 108.574,46.16 108.596,45.202C108.619,44.245 108.719,41.702 108.899,37.574L108.697,37.574L100.238,63.264L93.866,63.264L93.866,63.264Z" style="fill:rgb(115,115,115);fill-rule:nonzero;"/>
        </g>
        <g transform="matrix(1,0,0,1,0,0.334417)">
            <path d="M146.79,63.264L126.898,63.264L126.898,30.461L146.79,30.461L146.79,36.161L133.854,36.161L133.854,43.363L145.959,43.363L145.959,49.061L133.854,49.061L133.854,57.52L146.79,57.52L146.79,63.264Z" style="fill:rgb(115,115,115);fill-rule:nonzero;"/>
        </g>
        <g transform="matrix(1,0,0,1,0,0.334417)">
            <path d="M177.218,46.728C177.218,39.683 174.107,36.161 167.885,36.161L164.183,36.161L164.183,57.52L167.167,57.52C173.868,57.52 177.218,53.923 177.218,46.728ZM184.443,46.548C184.443,51.948 182.906,56.084 179.832,58.956C176.758,61.828 172.319,63.264 166.516,63.264L157.228,63.264L157.228,30.461L167.526,30.461C172.88,30.461 177.039,31.875 180,34.702C182.962,37.529 184.443,41.478 184.443,46.548Z" style="fill:rgb(115,115,115);fill-rule:nonzero;"/>
        </g>
        <g transform="matrix(1,0,0,1,0,0.334417)">
            <path d="M223.847,63.264L220.077,63.264L213.458,41.298C213.145,40.326 212.793,39.1 212.404,37.619C212.015,36.138 211.813,35.248 211.798,34.949C211.469,36.923 210.946,39.085 210.228,41.433L203.811,63.264L200.042,63.264L191.314,30.461L195.353,30.461L200.535,50.722C201.253,53.564 201.776,56.137 202.105,58.44C202.51,55.703 203.107,53.025 203.9,50.408L209.779,30.461L213.817,30.461L219.987,50.587C220.706,52.906 221.312,55.523 221.805,58.44C222.089,56.316 222.627,53.728 223.42,50.677L228.581,30.461L232.619,30.461L223.847,63.264L223.847,63.264Z" style="fill:rgb(115,115,115);fill-rule:nonzero;"/>
        </g>
        <g transform="matrix(1,0,0,1,0,0.334417)">
            <rect x="242.353" y="30.461" width="3.814" height="32.803" style="fill:rgb(115,115,115);"/>
        </g>
        <g transform="matrix(1,0,0,1,0,0.334417)">
            <path d="M285.381,63.264L281.028,63.264L263.101,35.734L262.922,35.734C263.161,38.965 263.281,41.927 263.281,44.619L263.281,63.264L259.758,63.264L259.758,30.461L264.066,30.461L281.948,57.879L282.127,57.879C282.097,57.475 282.03,56.178 281.925,53.986C281.821,51.795 281.783,50.228 281.813,49.286L281.813,30.461L285.381,30.461L285.381,63.264Z" style="fill:rgb(115,115,115);fill-rule:nonzero;"/>
        </g>
        <g transform="matrix(1,0,0,1,0,0.334417)">
            <path d="M311.422,46.077L322.573,46.077L322.573,62.03C320.837,62.583 319.073,63.002 317.278,63.286C315.483,63.57 313.403,63.712 311.04,63.712C306.074,63.712 302.208,62.235 299.44,59.281C296.673,56.327 295.29,52.188 295.29,46.863C295.29,43.452 295.974,40.465 297.343,37.899C298.711,35.334 300.682,33.375 303.255,32.021C305.827,30.667 308.841,29.99 312.297,29.99C315.797,29.99 319.058,30.634 322.079,31.92L320.598,35.286C317.637,34.029 314.787,33.401 312.05,33.401C308.056,33.401 304.938,34.59 302.694,36.968C300.45,39.347 299.329,42.644 299.329,46.863C299.329,51.29 300.409,54.648 302.57,56.936C304.732,59.225 307.907,60.369 312.095,60.369C314.368,60.369 316.589,60.108 318.758,59.584L318.758,49.488L311.422,49.488L311.422,46.077L311.422,46.077Z" style="fill:rgb(115,115,115);fill-rule:nonzero;"/>
        </g>
        <g transform="matrix(1,0,0,1,0,0.334417)">
            <path d="M69,40.616C69,40.616 64.154,28.496 52.823,28.496C50.999,28.496 49.007,28.811 46.842,29.539C48.233,32.097 49.474,35.011 50.465,38.347C50.647,38.961 50.933,40.087 51.18,41.569C51.426,43.047 51.631,44.867 51.631,46.83C51.631,48.581 51.467,50.446 51.003,52.287C58.241,41.29 66.618,40.603 68.575,40.603C68.852,40.603 69,40.616 69,40.616L69,40.616ZM27.272,54.468C23.95,58.178 19.929,58.937 17.189,58.937C15.284,58.937 14,58.569 14,58.569C19.752,63.032 25.238,64.81 30.215,64.81C36.021,64.81 41.125,62.383 45.143,58.979C44.977,58.861 44.816,58.74 44.615,58.578C44.392,58.399 44.132,58.184 43.836,57.933C43.245,57.433 42.511,56.794 41.683,56.065C40.028,54.606 37.993,52.779 36.015,50.991C34.592,49.704 33.204,48.441 32.001,47.347C30.434,50.11 28.898,52.653 27.272,54.468L27.272,54.468Z" style="fill:rgb(92,196,184);fill-rule:nonzero;"/>
            <path d="M25.512,14.05C25.512,14.05 15.312,29.309 29.493,42.715C29.493,42.715 30.886,43.995 32.874,45.806C36.285,39.706 39.977,32.922 45.25,30.212C37.637,16.325 25.512,14.05 25.512,14.05L25.512,14.05Z" style="fill:rgb(99,197,186);fill-rule:nonzero;"/>
            <path d="M45.25,30.211C39.977,32.923 36.286,39.705 32.874,45.805C37.384,49.918 44.951,56.77 46.174,57.597L47.118,56.568C51.676,50.746 49.413,40.861 48.81,38.839C47.832,35.556 46.614,32.697 45.25,30.211L45.25,30.211Z" style="fill:rgb(70,191,174);fill-rule:nonzero;"/>
        </g>
    </g>
</svg>
