<?xml version="1.0"?>
<svg xmlns="http://www.w3.org/2000/svg" height="512px" version="1.1" viewBox="-86 0 951 951.24851" width="512px">
<g id="surface1">
<path d="M 358.78125 911.835938 C 299.132812 842.242188 31.316406 520.746094 31.316406 358.65625 C 31.316406 177.796875 177.921875 31.191406 358.78125 31.191406 C 539.636719 31.191406 686.253906 177.796875 686.253906 358.65625 C 686.253906 399.667969 668.535156 455 633.625 523.078125 L 661.367188 537.304688 C 698.570312 464.777344 717.441406 404.667969 717.441406 358.65625 C 717.441406 160.578125 556.859375 0 358.78125 0 C 160.695312 0 0.125 160.578125 0.125 358.65625 C 0.125 551.824219 332.9375 929.972656 347.105469 945.976562 C 350.058594 949.332031 354.324219 951.25 358.800781 951.25 C 363.269531 951.25 367.53125 949.332031 370.496094 945.976562 C 370.886719 945.519531 411.84375 899.191406 464.644531 831.902344 L 440.101562 812.636719 C 404.546875 857.914062 374.484375 893.527344 358.78125 911.835938 Z M 358.78125 911.835938 " style=" fill-rule:nonzero;fill-opacity:1;" stroke="#c62828" fill="#c62828"/>
<path d="M 358.78125 109.160156 C 229.59375 109.160156 124.875 213.882812 124.875 343.066406 C 124.875 472.25 229.59375 576.976562 358.78125 576.976562 C 487.960938 576.976562 592.6875 472.25 592.6875 343.066406 C 592.535156 213.949219 487.902344 109.300781 358.78125 109.160156 Z M 358.78125 545.785156 C 246.824219 545.785156 156.0625 455.027344 156.0625 343.066406 C 156.0625 231.105469 246.824219 140.34375 358.78125 140.34375 C 470.742188 140.34375 561.507812 231.105469 561.507812 343.066406 C 561.375 454.96875 470.6875 545.65625 358.78125 545.785156 Z M 358.78125 545.785156 " style=" fill-rule:nonzero;fill-opacity:1;" stroke="#c62828" fill="#c62828"/>
<path d="M 327.59375 327.476562 L 389.972656 327.476562 L 389.972656 358.65625 L 327.59375 358.65625 Z M 327.59375 327.476562 " style=" fill-rule:nonzero;fill-opacity:1;" stroke="#c62828" fill="#c62828"/>
<path d="M 405.5625 327.476562 L 436.753906 327.476562 L 436.753906 358.65625 L 405.5625 358.65625 Z M 405.5625 327.476562 " style=" fill-rule:nonzero;fill-opacity:1;" stroke="#c62828" fill="#c62828"/>
<path d="M 280.816406 327.476562 L 312.003906 327.476562 L 312.003906 358.65625 L 280.816406 358.65625 Z M 280.816406 327.476562 " style=" fill-rule:nonzero;fill-opacity:1;" stroke="#c62828" fill="#c62828"/>
<path d="M 608.28125 545.785156 C 513.546875 545.785156 436.753906 622.582031 436.753906 717.316406 C 436.753906 812.050781 513.546875 888.847656 608.28125 888.847656 C 703.011719 888.847656 779.816406 812.050781 779.816406 717.316406 C 779.707031 622.625 702.96875 545.898438 608.28125 545.785156 Z M 608.28125 857.660156 C 530.773438 857.660156 467.9375 794.832031 467.9375 717.316406 C 467.9375 639.804688 530.773438 576.976562 608.28125 576.976562 C 685.792969 576.976562 748.632812 639.804688 748.632812 717.316406 C 748.539062 794.792969 685.761719 857.582031 608.28125 857.660156 Z M 608.28125 857.660156 " style=" fill-rule:nonzero;fill-opacity:1;" stroke="#c62828" fill="#c62828"/>
<path d="M 675.230469 628.324219 L 608.28125 695.269531 L 541.34375 628.324219 L 519.292969 650.371094 L 586.230469 717.316406 L 519.292969 784.261719 L 541.34375 806.316406 L 608.28125 739.371094 L 675.230469 806.316406 L 697.28125 784.261719 L 630.328125 717.316406 L 697.28125 650.371094 Z M 675.230469 628.324219 " style=" fill-rule:nonzero;fill-opacity:1;" stroke="#c62828" fill="#c62828"/>
</g>
</svg>
